<?xml version="1.0" encoding="utf-8"?>
<!-- Generator: Adobe Illustrator 22.1.0, SVG Export Plug-In . SVG Version: 6.00 Build 0)  -->
<svg version="1.1" id="Layer_1" xmlns="http://www.w3.org/2000/svg" xmlns:xlink="http://www.w3.org/1999/xlink" x="0px" y="0px"
	 viewBox="0 0 527 527" style="enable-background:new 0 0 527 527;" xml:space="preserve">
<style type="text/css">
	.st0{fill:#FEF035;}
	.st1{fill:#FFFFFF;}
</style>
<g>
	<path class="st0" d="M517,263.5c0,140-113.5,253.5-253.5,253.5S10,403.5,10,263.5S123.5,10,263.5,10c22.7,0,44.7,3,65.7,8.6
		c8.7,2.3,17.2,5.1,25.5,8.3c0.9,2.1,1.3,4.3,1.3,6.7c0,6.3-3.3,11.9-8.3,15c-8.3-3.3-16.9-6.1-25.6-8.3
		c-18.7-4.9-38.3-7.5-58.5-7.5c-127.4,0-230.8,103.3-230.8,230.8s103.3,230.8,230.8,230.8s230.8-103.3,230.8-230.8
		c0-40.8-10.6-79.1-29.2-112.4c-4.4-7.9-9.2-15.5-14.5-22.7c2.2-7.2,8.9-12.4,16.8-12.4c0.8,0,1.6,0.1,2.4,0.2
		c5.2,7.3,10,14.8,14.4,22.6C505.1,175.6,517,218.2,517,263.5z"/>
</g>
<g>
	<path class="st1" d="M355.6,267.7l-107.1,61.9l-9.6-5.5l97.4-56.3c3.3-1.9,3.3-6.6,0-8.4l-118-68.1c-3.3-1.9-7.3,0.5-7.3,4.2v155.8
		l-2.6,1.5c-3.3,1.9-7.3-0.5-7.3-4.2v-170c0-3.8,4.1-6.1,7.3-4.2l147.2,85C358.8,261.2,358.8,265.8,355.6,267.7z"/>
</g>
</svg>
