<?xml version="1.0" encoding="utf-8"?>
<!-- Generator: Adobe Illustrator 22.1.0, SVG Export Plug-In . SVG Version: 6.00 Build 0)  -->
<svg version="1.1" id="Layer_1" xmlns="http://www.w3.org/2000/svg" xmlns:xlink="http://www.w3.org/1999/xlink" x="0px" y="0px"
	 viewBox="0 0 128 128" style="enable-background:new 0 0 128 128;" xml:space="preserve">
<style type="text/css">
	.st0{fill:#FFFFFF;}
</style>
<g>
	<path class="st0" d="M110.3,67.5H17.8c-1.9,0-3.5-1.6-3.5-3.5l0,0c0-1.9,1.6-3.5,3.5-3.5h92.5c1.9,0,3.5,1.6,3.5,3.5l0,0
		C113.8,65.9,112.2,67.5,110.3,67.5z"/>
	<path class="st0" d="M85.8,98.5h-68c-1.9,0-3.5-1.6-3.5-3.5l0,0c0-1.9,1.6-3.5,3.5-3.5h68c1.9,0,3.5,1.6,3.5,3.5l0,0
		C89.3,96.9,87.7,98.5,85.8,98.5z"/>
	<path class="st0" d="M60.8,36.5h-43c-1.9,0-3.5-1.6-3.5-3.5l0,0c0-1.9,1.6-3.5,3.5-3.5h43c1.9,0,3.5,1.6,3.5,3.5l0,0
		C64.3,34.9,62.7,36.5,60.8,36.5z"/>
</g>
</svg>
