<?xml version="1.0" encoding="utf-8"?>
<!-- Generator: Adobe Illustrator 22.1.0, SVG Export Plug-In . SVG Version: 6.00 Build 0)  -->
<svg version="1.1" id="Layer_1" xmlns="http://www.w3.org/2000/svg" xmlns:xlink="http://www.w3.org/1999/xlink" x="0px" y="0px"
	 viewBox="0 0 128 128" enable-background="new 0 0 128 128" xml:space="preserve">
<g>
	<path fill="#FFFFFF" d="M30.473,92.81L92.81,30.473c1.297-1.297,3.42-1.297,4.717,0l0,0c1.297,1.297,1.297,3.42,0,4.717
		L35.19,97.527c-1.297,1.297-3.42,1.297-4.717,0l0,0C29.176,96.23,29.176,94.107,30.473,92.81z"/>
	<path fill="#FFFFFF" d="M97.527,92.81L35.19,30.473c-1.297-1.297-3.42-1.297-4.717,0l0,0c-1.297,1.297-1.297,3.42,0,4.717
		L92.81,97.527c1.297,1.297,3.42,1.297,4.717,0l0,0C98.824,96.23,98.824,94.107,97.527,92.81z"/>
</g>
<g>
</g>
<g>
</g>
<g>
</g>
<g>
</g>
<g>
</g>
<g>
</g>
<g>
</g>
<g>
</g>
<g>
</g>
<g>
</g>
<g>
</g>
</svg>
