<?xml version="1.0" encoding="utf-8"?>
<!-- Generator: Adobe Illustrator 22.1.0, SVG Export Plug-In . SVG Version: 6.00 Build 0)  -->
<svg version="1.1" id="Layer_1" xmlns="http://www.w3.org/2000/svg" xmlns:xlink="http://www.w3.org/1999/xlink" x="0px" y="0px"
	 viewBox="0 0 150 150" style="enable-background:new 0 0 150 150;" xml:space="preserve">
<style type="text/css">
	.st0{fill:#2C3E50;}
</style>
<g>
	<path class="st0" d="M75,5c38.6,0,70,31.4,70,70s-31.4,70-70,70S5,113.6,5,75S36.4,5,75,5 M75,1C34.1,1,1,34.1,1,75s33.1,74,74,74
		s74-33.1,74-74S115.9,1,75,1L75,1z"/>
</g>
<g id="pencil_2_">
	<g>
		<polygon class="st0" points="43,107 59.7,101.4 48.6,90.3 		"/>
		
			<rect x="89.7" y="45.6" transform="matrix(0.7071 -0.7071 0.7071 0.7071 -9.5037 83.9333)" class="st0" width="13.8" height="15.7"/>
		
			<rect x="46.9" y="70.6" transform="matrix(0.7071 -0.7071 0.7071 0.7071 -34.5418 73.5648)" class="st0" width="49.2" height="15.7"/>
	</g>
</g>
</svg>
